# xmcd
#
# Track frame offsets: 
#        150
#        11790
#        19690
#        34962
#        50525
#        74865
#        85854
#        110492
#        126067
#        138885
#        152355
#        170797
#        202100
#        214922
#        226772
#        238970
#        244787
#
# Disc length: 3452 seconds
#
# Revision: 2
# Processed by: cddbd v1.5.2PL0 Copyright (c) Steve Scherf et al.
# Submitted via: ExactAudioCopy v0.99pb5
#
DISCID=f40d7a11
DTITLE=Gwar - We kill Everything
DYEAR=1999
DGENRE=Indie Metal
TTITLE0=Babyraper
TTITLE1=FistFuck
TTITLE2=The Performer
TTITLE3=A short History of the End of the World (Part VII (the final C
TTITLE3=hapter (abbr.)))
TTITLE4=Escape from the Mooselodge
TTITLE5=Tune from da Moon
TTITLE6=Jiggle the Handle
TTITLE7=Nitro-burnin' funny Bong
TTITLE8=Jagermonsta
TTITLE9=My girly Ways
TTITLE10=The Master has a Butt
TTITLE11=We kill Everything
TTITLE12=Child
TTITLE13=Penile Drip
TTITLE14=Mary Anne
TTITLE15=Friend
TTITLE16=Fuckin' an Animal
EXTD=
EXTT0=
EXTT1=
EXTT2=
EXTT3=
EXTT4=
EXTT5=
EXTT6=
EXTT7=
EXTT8=
EXTT9=
EXTT10=
EXTT11=
EXTT12=
EXTT13=
EXTT14=
EXTT15=
EXTT16=
PLAYORDER=
